<?xml version="1.0" encoding="UTF-8" standalone="no"?>
<!-- Created with Inkscape (http://www.inkscape.org/) -->

<svg
   xmlns:dc="http://purl.org/dc/elements/1.1/"
   xmlns:cc="http://creativecommons.org/ns#"
   xmlns:rdf="http://www.w3.org/1999/02/22-rdf-syntax-ns#"
   xmlns:svg="http://www.w3.org/2000/svg"
   xmlns="http://www.w3.org/2000/svg"
   xmlns:xlink="http://www.w3.org/1999/xlink"
   xmlns:sodipodi="http://sodipodi.sourceforge.net/DTD/sodipodi-0.dtd"
   xmlns:inkscape="http://www.inkscape.org/namespaces/inkscape"
   width="200"
   height="200"
   id="svg2965"
   version="1.1"
   inkscape:version="0.48.1 r9760"
   sodipodi:docname="Icon32--Amazon.svg"
   inkscape:export-filename="/Users/masa/AzukiSoft/AzPacking/Source/Design/Icon32-Amazon.png"
   inkscape:export-xdpi="14.4"
   inkscape:export-ydpi="14.4"
   style="display:inline">
  <defs
     id="defs2967">
    <inkscape:perspective
       sodipodi:type="inkscape:persp3d"
       inkscape:vp_x="0 : 526.18109 : 1"
       inkscape:vp_y="0 : 1000 : 0"
       inkscape:vp_z="744.09448 : 526.18109 : 1"
       inkscape:persp3d-origin="372.04724 : 350.78739 : 1"
       id="perspective2973" />
    <inkscape:perspective
       id="perspective2983"
       inkscape:persp3d-origin="0.5 : 0.33333333 : 1"
       inkscape:vp_z="1 : 0.5 : 1"
       inkscape:vp_y="0 : 1000 : 0"
       inkscape:vp_x="0 : 0.5 : 1"
       sodipodi:type="inkscape:persp3d" />
    <linearGradient
       inkscape:collect="always"
       xlink:href="#linearGradient3917"
       id="linearGradient5325"
       gradientUnits="userSpaceOnUse"
       gradientTransform="matrix(0.93571428,0,0,0.97142857,96.553265,671.01127)"
       x1="381.89471"
       y1="-310.05496"
       x2="387.75485"
       y2="-147.97206" />
    <linearGradient
       id="linearGradient3917">
      <stop
         style="stop-color:#edf4fd;stop-opacity:0.52845526;"
         offset="0"
         id="stop3919" />
      <stop
         style="stop-color:#175bb3;stop-opacity:0;"
         offset="1"
         id="stop3921" />
    </linearGradient>
    <inkscape:perspective
       id="perspective3075"
       inkscape:persp3d-origin="0.5 : 0.33333333 : 1"
       inkscape:vp_z="1 : 0.5 : 1"
       inkscape:vp_y="0 : 1000 : 0"
       inkscape:vp_x="0 : 0.5 : 1"
       sodipodi:type="inkscape:persp3d" />
    <linearGradient
       inkscape:collect="always"
       xlink:href="#linearGradient3917-2"
       id="linearGradient5374"
       gradientUnits="userSpaceOnUse"
       gradientTransform="matrix(0.93571428,0,0,0.97142857,-395.59376,1094.2791)"
       x1="381.89471"
       y1="-310.05496"
       x2="387.75485"
       y2="-147.97206" />
    <linearGradient
       id="linearGradient3917-2">
      <stop
         style="stop-color:#edf4fd;stop-opacity:0.52845526;"
         offset="0"
         id="stop3919-2" />
      <stop
         style="stop-color:#175bb3;stop-opacity:0;"
         offset="1"
         id="stop3921-9" />
    </linearGradient>
    <inkscape:perspective
       id="perspective3161"
       inkscape:persp3d-origin="0.5 : 0.33333333 : 1"
       inkscape:vp_z="1 : 0.5 : 1"
       inkscape:vp_y="0 : 1000 : 0"
       inkscape:vp_x="0 : 0.5 : 1"
       sodipodi:type="inkscape:persp3d" />
    <linearGradient
       inkscape:collect="always"
       xlink:href="#linearGradient3952"
       id="linearGradient4173"
       gradientUnits="userSpaceOnUse"
       x1="379.92142"
       y1="-298.53522"
       x2="387.75485"
       y2="-148.13335" />
    <linearGradient
       inkscape:collect="always"
       id="linearGradient3952">
      <stop
         style="stop-color:#0146a8;stop-opacity:1;"
         offset="0"
         id="stop3954" />
      <stop
         style="stop-color:#0146a8;stop-opacity:0;"
         offset="1"
         id="stop3956" />
    </linearGradient>
    <linearGradient
       inkscape:collect="always"
       xlink:href="#linearGradient3917-8"
       id="linearGradient5377"
       gradientUnits="userSpaceOnUse"
       gradientTransform="matrix(0.93571428,0,0,0.97142857,387.17357,670.22793)"
       x1="381.89471"
       y1="-310.05496"
       x2="387.75485"
       y2="-147.97206" />
    <linearGradient
       id="linearGradient3917-8">
      <stop
         style="stop-color:#edf4fd;stop-opacity:0.52845526;"
         offset="0"
         id="stop3919-1" />
      <stop
         style="stop-color:#175bb3;stop-opacity:0;"
         offset="1"
         id="stop3921-2" />
    </linearGradient>
    <linearGradient
       y2="-147.97206"
       x2="387.75485"
       y1="-310.05496"
       x1="381.89471"
       gradientTransform="matrix(0.93571428,0,0,0.97142857,387.17357,670.22793)"
       gradientUnits="userSpaceOnUse"
       id="linearGradient3179"
       xlink:href="#linearGradient3917-8"
       inkscape:collect="always" />
    <inkscape:perspective
       id="perspective3247"
       inkscape:persp3d-origin="0.5 : 0.33333333 : 1"
       inkscape:vp_z="1 : 0.5 : 1"
       inkscape:vp_y="0 : 1000 : 0"
       inkscape:vp_x="0 : 0.5 : 1"
       sodipodi:type="inkscape:persp3d" />
    <linearGradient
       inkscape:collect="always"
       id="linearGradient3952-3">
      <stop
         style="stop-color:#0146a8;stop-opacity:1;"
         offset="0"
         id="stop3954-0" />
      <stop
         style="stop-color:#0146a8;stop-opacity:0;"
         offset="1"
         id="stop3956-3" />
    </linearGradient>
    <linearGradient
       id="linearGradient3917-21">
      <stop
         style="stop-color:#edf4fd;stop-opacity:0.52845526;"
         offset="0"
         id="stop3919-7" />
      <stop
         style="stop-color:#175bb3;stop-opacity:0;"
         offset="1"
         id="stop3921-5" />
    </linearGradient>
    <linearGradient
       inkscape:collect="always"
       xlink:href="#linearGradient3917-21"
       id="linearGradient3041"
       gradientUnits="userSpaceOnUse"
       gradientTransform="matrix(0.93571428,0,0,0.97142857,-209.65653,637.54526)"
       x1="418.55829"
       y1="-216.0795"
       x2="417.58282"
       y2="-138.39496" />
    <linearGradient
       inkscape:collect="always"
       xlink:href="#linearGradient3952-3"
       id="linearGradient3057"
       gradientUnits="userSpaceOnUse"
       gradientTransform="translate(-22.992394,-24.23013)"
       x1="389.24265"
       y1="-313.49945"
       x2="396.45468"
       y2="-102.04346" />
  </defs>
  <sodipodi:namedview
     id="base"
     pagecolor="#ffffff"
     bordercolor="#666666"
     borderopacity="1.0"
     inkscape:pageopacity="0.0"
     inkscape:pageshadow="2"
     inkscape:zoom="2.2672702"
     inkscape:cx="79.837227"
     inkscape:cy="100"
     inkscape:document-units="px"
     inkscape:current-layer="g5286"
     showgrid="false"
     inkscape:window-width="1198"
     inkscape:window-height="778"
     inkscape:window-x="431"
     inkscape:window-y="65"
     inkscape:window-maximized="0" />
  <metadata
     id="metadata2970">
    <rdf:RDF>
      <cc:Work
         rdf:about="">
        <dc:format>image/svg+xml</dc:format>
        <dc:type
           rdf:resource="http://purl.org/dc/dcmitype/StillImage" />
        <dc:title></dc:title>
      </cc:Work>
    </rdf:RDF>
  </metadata>
  <g
     inkscape:label="Amazon"
     inkscape:groupmode="layer"
     id="layer1"
     transform="translate(-381.54108,-373.59406)"
     sodipodi:insensitive="true">
    <g
       id="g5286"
       transform="matrix(0.75852693,0,0,0.75852693,348.54276,128.88368)">
      <path
         transform="matrix(1,0,0,1.0126269,-213.06933,668.28617)"
         d="m 497.42289,-208.45078 a 109.66804,109.66804 0 1 1 -219.33608,0 109.66804,109.66804 0 1 1 219.33608,0 z"
         sodipodi:ry="109.66804"
         sodipodi:rx="109.66804"
         sodipodi:cy="-208.45078"
         sodipodi:cx="387.75485"
         id="path3948"
         style="fill:#103683;fill-opacity:1;stroke-width:1.89999998;stroke-miterlimit:4;stroke-dasharray:none"
         sodipodi:type="arc" />
      <path
         sodipodi:type="arc"
         style="fill:url(#linearGradient3057);fill-opacity:1;stroke-width:1.89999998;stroke-miterlimit:4;stroke-dasharray:none"
         id="path3950"
         sodipodi:cx="387.75485"
         sodipodi:cy="-208.45078"
         sodipodi:rx="109.66804"
         sodipodi:ry="109.66804"
         d="m 497.42289,-208.45078 a 109.66804,109.66804 0 1 1 -219.33608,0 109.66804,109.66804 0 1 1 219.33608,0 z"
         transform="matrix(0.93571428,0,0,0.97142857,-188.14223,661.08311)" />
      <path
         transform="matrix(0.87195759,0,0,0.82513033,177.00056,267.67636)"
         d="m 29.357083,296.26047 a 16.340263,16.340263 0 1 1 -32.6805264,0 16.340263,16.340263 0 1 1 32.6805264,0 z"
         sodipodi:ry="16.340263"
         sodipodi:rx="16.340263"
         sodipodi:cy="296.26047"
         sodipodi:cx="13.01682"
         id="path3984"
         style="fill:#eeeeee;fill-opacity:1;stroke-width:1.89999998;stroke-miterlimit:4;stroke-dasharray:none"
         sodipodi:type="arc" />
      <path
         sodipodi:type="arc"
         style="fill:#eeeeee;fill-opacity:1;stroke-width:1.89999998;stroke-miterlimit:4;stroke-dasharray:none"
         id="path3986"
         sodipodi:cx="13.01682"
         sodipodi:cy="296.26047"
         sodipodi:rx="16.340263"
         sodipodi:ry="16.340263"
         d="m 29.357083,296.26047 a 16.340263,16.340263 0 1 1 -32.6805264,0 16.340263,16.340263 0 1 1 32.6805264,0 z"
         transform="matrix(0.87195759,0,0,0.82513033,121.45744,267.21931)" />
      <path
         inkscape:connector-curvature="0"
         id="rect3988"
         d="m 229.9739,426.29462 c -3.99171,-0.0169 -8.36033,2.44356 -10.65424,6.29162 l -23.86983,40.01882 -72.20899,0 c -5.79678,0 -10.4635,4.27487 -10.4635,9.59214 0,5.31727 4.66672,9.59214 10.4635,9.59214 l 73.24444,0 c 2.40074,0 4.58709,-0.74746 6.34894,-1.98547 1.90487,-1.09208 3.6057,-2.66494 4.76851,-4.61557 l 24.66006,-41.38545 20.81798,0 c 5.74787,0 10.38175,-3.87879 10.38175,-8.68965 0,-4.81086 -4.63388,-8.68965 -10.38175,-8.68965 l -21.74444,0 c -0.45155,-0.0706 -0.89735,-0.12696 -1.36243,-0.12893 z"
         style="fill:#eeeeee;fill-opacity:1;stroke-width:1.89999998;stroke-miterlimit:4;stroke-dasharray:none" />
      <g
         transform="matrix(0.87195759,0,0,0.82513033,98.274229,-132.0252)"
         id="g4031">
        <path
           sodipodi:type="arc"
           style="fill:#eeeeee;fill-opacity:1;stroke-width:1.89999998;stroke-miterlimit:4;stroke-dasharray:none"
           id="path4003"
           sodipodi:cx="15.509403"
           sodipodi:cy="462.70959"
           sodipodi:rx="14.401588"
           sodipodi:ry="14.401588"
           d="m 29.910992,462.70959 a 14.401588,14.401588 0 1 1 -28.8031772,0 14.401588,14.401588 0 1 1 28.8031772,0 z"
           transform="matrix(0.84615385,0,0,0.84615385,6.8173196,320.73962)" />
        <path
           transform="matrix(0.84615385,0,0,0.84615385,34.470069,320.73962)"
           d="m 29.910992,462.70959 a 14.401588,14.401588 0 1 1 -28.8031772,0 14.401588,14.401588 0 1 1 28.8031772,0 z"
           sodipodi:ry="14.401588"
           sodipodi:rx="14.401588"
           sodipodi:cy="462.70959"
           sodipodi:cx="15.509403"
           id="path4011"
           style="fill:#eeeeee;fill-opacity:1;stroke-width:1.89999998;stroke-miterlimit:4;stroke-dasharray:none"
           sodipodi:type="arc" />
        <path
           sodipodi:type="arc"
           style="fill:#eeeeee;fill-opacity:1;stroke-width:1.89999998;stroke-miterlimit:4;stroke-dasharray:none"
           id="path4013"
           sodipodi:cx="15.509403"
           sodipodi:cy="462.70959"
           sodipodi:rx="14.401588"
           sodipodi:ry="14.401588"
           d="m 29.910992,462.70959 a 14.401588,14.401588 0 1 1 -28.8031772,0 14.401588,14.401588 0 1 1 28.8031772,0 z"
           transform="matrix(0.84615385,0,0,0.84615385,62.122823,320.73962)" />
        <path
           transform="matrix(0.84615385,0,0,0.84615385,89.77558,320.73962)"
           d="m 29.910992,462.70959 a 14.401588,14.401588 0 1 1 -28.8031772,0 14.401588,14.401588 0 1 1 28.8031772,0 z"
           sodipodi:ry="14.401588"
           sodipodi:rx="14.401588"
           sodipodi:cy="462.70959"
           sodipodi:cx="15.509403"
           id="path4029"
           style="fill:#eeeeee;fill-opacity:1;stroke-width:1.89999998;stroke-miterlimit:4;stroke-dasharray:none"
           sodipodi:type="arc" />
      </g>
      <g
         id="g4037"
         transform="matrix(0.87195759,0,0,0.82513033,82.210919,-157.50493)">
        <path
           transform="matrix(0.84615385,0,0,0.84615385,6.8173196,320.73962)"
           d="m 29.910992,462.70959 a 14.401588,14.401588 0 1 1 -28.8031772,0 14.401588,14.401588 0 1 1 28.8031772,0 z"
           sodipodi:ry="14.401588"
           sodipodi:rx="14.401588"
           sodipodi:cy="462.70959"
           sodipodi:cx="15.509403"
           id="path4039"
           style="fill:#eeeeee;fill-opacity:1;stroke-width:1.89999998;stroke-miterlimit:4;stroke-dasharray:none"
           sodipodi:type="arc" />
        <path
           sodipodi:type="arc"
           style="fill:#eeeeee;fill-opacity:1;stroke-width:1.89999998;stroke-miterlimit:4;stroke-dasharray:none"
           id="path4041"
           sodipodi:cx="15.509403"
           sodipodi:cy="462.70959"
           sodipodi:rx="14.401588"
           sodipodi:ry="14.401588"
           d="m 29.910992,462.70959 a 14.401588,14.401588 0 1 1 -28.8031772,0 14.401588,14.401588 0 1 1 28.8031772,0 z"
           transform="matrix(0.84615385,0,0,0.84615385,34.470069,320.73962)" />
        <path
           transform="matrix(0.84615385,0,0,0.84615385,62.122823,320.73962)"
           d="m 29.910992,462.70959 a 14.401588,14.401588 0 1 1 -28.8031772,0 14.401588,14.401588 0 1 1 28.8031772,0 z"
           sodipodi:ry="14.401588"
           sodipodi:rx="14.401588"
           sodipodi:cy="462.70959"
           sodipodi:cx="15.509403"
           id="path4043"
           style="fill:#eeeeee;fill-opacity:1;stroke-width:1.89999998;stroke-miterlimit:4;stroke-dasharray:none"
           sodipodi:type="arc" />
        <path
           sodipodi:type="arc"
           style="fill:#eeeeee;fill-opacity:1;stroke-width:1.89999998;stroke-miterlimit:4;stroke-dasharray:none"
           id="path4045"
           sodipodi:cx="15.509403"
           sodipodi:cy="462.70959"
           sodipodi:rx="14.401588"
           sodipodi:ry="14.401588"
           d="m 29.910992,462.70959 a 14.401588,14.401588 0 1 1 -28.8031772,0 14.401588,14.401588 0 1 1 28.8031772,0 z"
           transform="matrix(0.84615385,0,0,0.84615385,89.77558,320.73962)" />
      </g>
      <path
         inkscape:connector-curvature="0"
         id="path3960"
         d="m 174.68067,352.03885 c -56.67433,0 -102.625,47.72503 -102.625,106.5625 0,3.7524 0.1979,7.44146 0.5625,11.09375 50.06658,18.72599 126.58171,32.36872 204.6875,-10.59375 7.4e-4,-0.16695 0,-0.33287 0,-0.5 0,-58.83747 -45.95067,-106.5625 -102.625,-106.5625 z"
         style="fill:url(#linearGradient3041);fill-opacity:1;stroke-width:1.89999998;stroke-miterlimit:4;stroke-dasharray:none" />
    </g>
  </g>
</svg>
