<?xml version="1.0" encoding="UTF-8" standalone="no"?>
<!-- Created with Inkscape (http://www.inkscape.org/) -->

<svg
   xmlns:dc="http://purl.org/dc/elements/1.1/"
   xmlns:cc="http://creativecommons.org/ns#"
   xmlns:rdf="http://www.w3.org/1999/02/22-rdf-syntax-ns#"
   xmlns:svg="http://www.w3.org/2000/svg"
   xmlns="http://www.w3.org/2000/svg"
   xmlns:xlink="http://www.w3.org/1999/xlink"
   xmlns:sodipodi="http://sodipodi.sourceforge.net/DTD/sodipodi-0.dtd"
   xmlns:inkscape="http://www.inkscape.org/namespaces/inkscape"
   width="460"
   height="460"
   id="svg8333"
   sodipodi:version="0.32"
   inkscape:version="0.48.1 r9760"
   version="1.0"
   sodipodi:docname="Icon32--ExtParts.svg"
   inkscape:output_extension="org.inkscape.output.svg.inkscape"
   inkscape:export-filename="/Users/masa/AzukiSoft/AzPackList/Source/Design/Icon32-ExtParts@2x.png"
   inkscape:export-xdpi="12.52"
   inkscape:export-ydpi="12.52">
  <defs
     id="defs8335">
    <inkscape:perspective
       sodipodi:type="inkscape:persp3d"
       inkscape:vp_x="0 : 152 : 1"
       inkscape:vp_y="0 : 1000 : 0"
       inkscape:vp_z="430 : 152 : 1"
       inkscape:persp3d-origin="215 : 101.33333 : 1"
       id="perspective60" />
    <linearGradient
       inkscape:collect="always"
       xlink:href="#linearGradient13960"
       id="linearGradient8331"
       gradientUnits="userSpaceOnUse"
       x1="796.66028"
       y1="-87.054329"
       x2="833.10712"
       y2="-210.42824" />
    <linearGradient
       inkscape:collect="always"
       xlink:href="#linearGradient13960"
       id="linearGradient8329"
       gradientUnits="userSpaceOnUse"
       x1="937.62018"
       y1="-117.61185"
       x2="961.21002"
       y2="-233.32614" />
    <linearGradient
       inkscape:collect="always"
       xlink:href="#linearGradient13960"
       id="linearGradient8327"
       gradientUnits="userSpaceOnUse"
       x1="842.45282"
       y1="-236.44258"
       x2="867.47113"
       y2="-359.81647" />
    <linearGradient
       id="linearGradient13960">
      <stop
         style="stop-color:#ffffff;stop-opacity:0.57462686;"
         offset="0"
         id="stop13962" />
      <stop
         style="stop-color:#ffffff;stop-opacity:0;"
         offset="1"
         id="stop13964" />
    </linearGradient>
    <linearGradient
       inkscape:collect="always"
       xlink:href="#linearGradient13960"
       id="linearGradient8325"
       gradientUnits="userSpaceOnUse"
       x1="701.49292"
       y1="-216.46375"
       x2="730.79694"
       y2="-330.74945" />
    <filter
       inkscape:collect="always"
       id="filter6240"
       color-interpolation-filters="sRGB">
      <feGaussianBlur
         inkscape:collect="always"
         stdDeviation="6.9819351"
         id="feGaussianBlur6242" />
    </filter>
    <linearGradient
       inkscape:collect="always"
       xlink:href="#linearGradient13960"
       id="linearGradient9464"
       gradientUnits="userSpaceOnUse"
       x1="701.49292"
       y1="-216.46375"
       x2="730.79694"
       y2="-330.74945" />
    <linearGradient
       inkscape:collect="always"
       xlink:href="#linearGradient13960"
       id="linearGradient9466"
       gradientUnits="userSpaceOnUse"
       x1="842.45282"
       y1="-236.44258"
       x2="867.47113"
       y2="-359.81647" />
    <linearGradient
       inkscape:collect="always"
       xlink:href="#linearGradient13960"
       id="linearGradient9468"
       gradientUnits="userSpaceOnUse"
       x1="937.62018"
       y1="-117.61185"
       x2="961.21002"
       y2="-233.32614" />
    <linearGradient
       inkscape:collect="always"
       xlink:href="#linearGradient13960"
       id="linearGradient9470"
       gradientUnits="userSpaceOnUse"
       x1="796.66028"
       y1="-87.054329"
       x2="833.10712"
       y2="-210.42824" />
    <linearGradient
       inkscape:collect="always"
       xlink:href="#linearGradient13960"
       id="linearGradient9506"
       gradientUnits="userSpaceOnUse"
       x1="616.00427"
       y1="-310.16663"
       x2="727.66547"
       y2="-202.13321"
       gradientTransform="matrix(1.0010248,0.02937387,-0.00535172,0.84660195,-16.369462,-132.11301)" />
    <linearGradient
       inkscape:collect="always"
       xlink:href="#linearGradient13960"
       id="linearGradient9508"
       gradientUnits="userSpaceOnUse"
       x1="763.74335"
       y1="-277.66333"
       x2="897.67944"
       y2="-212.27791"
       gradientTransform="matrix(1.0010248,0.02937387,-0.00535172,0.84660195,-16.369462,-132.11301)" />
    <linearGradient
       inkscape:collect="always"
       xlink:href="#linearGradient13960"
       id="linearGradient9510"
       gradientUnits="userSpaceOnUse"
       x1="827.13208"
       y1="-171.79904"
       x2="990.5"
       y2="-72.20089"
       gradientTransform="matrix(1.0010248,0.02937387,-0.00535172,0.84660195,-16.369462,-132.11301)" />
    <linearGradient
       inkscape:collect="always"
       xlink:href="#linearGradient13960"
       id="linearGradient9512"
       gradientUnits="userSpaceOnUse"
       x1="723.64795"
       y1="-162.42426"
       x2="866.34985"
       y2="-22.933952"
       gradientTransform="matrix(1.0010248,0.02937387,-0.00535172,0.84660195,-16.369462,-132.11301)" />
  </defs>
  <sodipodi:namedview
     id="base"
     pagecolor="#ffffff"
     bordercolor="#666666"
     borderopacity="1.0"
     inkscape:pageopacity="0"
     inkscape:pageshadow="2"
     inkscape:zoom="1.44"
     inkscape:cx="295.81635"
     inkscape:cy="254.1357"
     inkscape:document-units="px"
     inkscape:current-layer="layer1"
     inkscape:window-width="1580"
     inkscape:window-height="1017"
     inkscape:window-x="109"
     inkscape:window-y="33"
     showgrid="false"
     inkscape:window-maximized="0"
     inkscape:showpageshadow="false"
     showborder="true"
     fit-margin-top="0"
     fit-margin-left="0"
     fit-margin-right="0"
     fit-margin-bottom="0" />
  <metadata
     id="metadata8338">
    <rdf:RDF>
      <cc:Work
         rdf:about="">
        <dc:format>image/svg+xml</dc:format>
        <dc:type
           rdf:resource="http://purl.org/dc/dcmitype/StillImage" />
        <cc:license
           rdf:resource="http://creativecommons.org/licenses/publicdomain/" />
        <dc:title></dc:title>
        <dc:creator>
          <cc:Agent>
            <dc:title>Benjamin Pavie</dc:title>
          </cc:Agent>
        </dc:creator>
      </cc:Work>
      <cc:License
         rdf:about="http://creativecommons.org/licenses/publicdomain/">
        <cc:permits
           rdf:resource="http://creativecommons.org/ns#Reproduction" />
        <cc:permits
           rdf:resource="http://creativecommons.org/ns#Distribution" />
        <cc:permits
           rdf:resource="http://creativecommons.org/ns#DerivativeWorks" />
      </cc:License>
    </rdf:RDF>
  </metadata>
  <g
     inkscape:label="Calque 1"
     inkscape:groupmode="layer"
     id="layer1"
     transform="translate(-1240.7908,-694.9436)">
    <g
       id="g9472"
       transform="matrix(1,-0.31123912,0.1749767,1.125305,679.09328,1434.957)"
       inkscape:export-filename="/mnt/windows/Users/bpavie/Documents/SVG/jigsaw.png"
       inkscape:export-xdpi="62.790001"
       inkscape:export-ydpi="62.790001">
      <g
         transform="matrix(0.9853309,0.06992654,-0.2097796,1,-34.235487,-58.023646)"
         id="g9474">
        <path
           style="fill:#666666;fill-opacity:1;fill-rule:evenodd;stroke:none;filter:url(#filter6240)"
           d="m 650.45263,-343.00717 c -9.51582,1.75929 -11.84196,10.15494 -5.19226,18.74029 2.50618,3.23571 5.95211,6.05474 9.75708,8.19758 l -38.50007,7.11784 c -2.5994,0.48058 -3.23354,2.7693 -1.41707,5.11454 l 26.70324,34.47624 c 1.48459,-2.01798 3.9237,-3.50359 7.31176,-4.12998 9.51583,-1.75928 22.63571,3.78074 29.28541,12.36609 6.64968,8.58536 4.32355,16.981 -5.19228,18.74027 -3.38807,0.62639 -7.2292,0.30186 -11.07632,-0.73039 l 26.70323,34.47623 c 1.81647,2.34524 5.39307,3.85548 7.99244,3.37491 l 37.5304,-6.93858 c 0.40781,2.40216 1.58051,5.00905 3.61052,7.62998 6.6497,8.58536 19.76957,14.12538 29.28539,12.3661 9.51583,-1.75928 11.842,-10.15493 5.19228,-18.74028 -2.03002,-2.62093 -4.68355,-4.95406 -7.63292,-6.88633 l 37.53037,-6.93858 c 2.59943,-0.48057 3.23355,-2.76929 1.41707,-5.11454 l -26.70323,-34.47623 c -1.48461,2.01797 -3.92371,3.50359 -7.31175,4.12998 -9.51586,1.75928 -22.6357,-3.78074 -29.28541,-12.3661 -6.6497,-8.58535 -4.32357,-16.981 5.19226,-18.74029 3.38807,-0.62636 7.22921,-0.30183 11.07632,0.73041 l -26.70319,-34.47622 c -1.81652,-2.34526 -5.39309,-3.85549 -7.99248,-3.37491 l -38.50005,7.11785 c -0.0519,-2.8367 -1.28914,-6.06406 -3.79535,-9.29978 -6.64968,-8.58536 -19.76955,-14.12536 -29.28539,-12.3661 z"
           id="path9476"
           inkscape:connector-curvature="0" />
        <path
           style="fill:#fce94f;fill-opacity:1;fill-rule:evenodd;stroke:none"
           d="m 656.45263,-349.00717 c -9.51582,1.75929 -11.84196,10.15494 -5.19226,18.74029 2.50618,3.23571 5.95211,6.05474 9.75708,8.19758 l -38.50007,7.11784 c -2.5994,0.48058 -3.23354,2.7693 -1.41707,5.11454 l 26.70324,34.47624 c 1.48459,-2.01798 3.9237,-3.50359 7.31176,-4.12998 9.51583,-1.75928 22.63571,3.78074 29.28541,12.36609 6.64968,8.58536 4.32355,16.981 -5.19228,18.74027 -3.38807,0.62639 -7.2292,0.30186 -11.07632,-0.73039 l 26.70323,34.47623 c 1.81647,2.34524 5.39307,3.85548 7.99244,3.37491 l 37.5304,-6.93858 c 0.40781,2.40216 1.58051,5.00905 3.61052,7.62998 6.6497,8.58536 19.76957,14.12538 29.28539,12.3661 9.51583,-1.75928 11.842,-10.15493 5.19228,-18.74028 -2.03002,-2.62093 -4.68355,-4.95406 -7.63292,-6.88633 l 37.53037,-6.93858 c 2.59943,-0.48057 3.23355,-2.76929 1.41707,-5.11454 l -26.70323,-34.47623 c -1.48461,2.01797 -3.92371,3.50359 -7.31175,4.12998 -9.51586,1.75928 -22.6357,-3.78074 -29.28541,-12.3661 -6.6497,-8.58535 -4.32357,-16.981 5.19226,-18.74029 3.38807,-0.62636 7.22921,-0.30183 11.07632,0.73041 l -26.70319,-34.47622 c -1.81652,-2.34526 -5.39309,-3.85549 -7.99248,-3.37491 l -38.50005,7.11785 c -0.0519,-2.8367 -1.28914,-6.06406 -3.79535,-9.29978 -6.64968,-8.58536 -19.76955,-14.12536 -29.28539,-12.3661 z"
           id="path9478"
           inkscape:connector-curvature="0" />
        <path
           style="fill:url(#linearGradient9506);fill-opacity:1;fill-rule:evenodd;stroke:none"
           d="m 656.45263,-349.00717 c -9.51582,1.75929 -11.84196,10.15494 -5.19226,18.74029 2.50618,3.23571 5.95211,6.05474 9.75708,8.19758 l -38.50007,7.11784 c -2.5994,0.48058 -3.23354,2.7693 -1.41707,5.11454 l 26.70324,34.47624 c 1.48459,-2.01798 3.9237,-3.50359 7.31176,-4.12998 9.51583,-1.75928 22.63571,3.78074 29.28541,12.36609 6.64968,8.58536 4.32355,16.981 -5.19228,18.74027 -3.38807,0.62639 -7.2292,0.30186 -11.07632,-0.73039 l 26.70323,34.47623 c 1.81647,2.34524 5.39307,3.85548 7.99244,3.37491 l 37.5304,-6.93858 c 0.40781,2.40216 1.58051,5.00905 3.61052,7.62998 6.6497,8.58536 19.76957,14.12538 29.28539,12.3661 9.51583,-1.75928 11.842,-10.15493 5.19228,-18.74028 -2.03002,-2.62093 -4.68355,-4.95406 -7.63292,-6.88633 l 37.53037,-6.93858 c 2.59943,-0.48057 3.23355,-2.76929 1.41707,-5.11454 l -26.70323,-34.47623 c -1.48461,2.01797 -3.92371,3.50359 -7.31175,4.12998 -9.51586,1.75928 -22.6357,-3.78074 -29.28541,-12.3661 -6.6497,-8.58535 -4.32357,-16.981 5.19226,-18.74029 3.38807,-0.62636 7.22921,-0.30183 11.07632,0.73041 l -26.70319,-34.47622 c -1.81652,-2.34526 -5.39309,-3.85549 -7.99248,-3.37491 l -38.50005,7.11785 c -0.0519,-2.8367 -1.28914,-6.06406 -3.79535,-9.29978 -6.64968,-8.58536 -19.76955,-14.12536 -29.28539,-12.3661 z"
           id="path9480"
           inkscape:connector-curvature="0" />
      </g>
      <g
         transform="matrix(0.9853309,0.06992654,-0.2097796,1,-34.235487,-58.023646)"
         id="g9482">
        <path
           style="fill:#666666;fill-opacity:1;fill-rule:evenodd;stroke:none;filter:url(#filter6240)"
           d="m 930.50326,-307.73303 c -6.64969,-8.58535 -19.76956,-14.12536 -29.2854,-12.36608 -3.58638,0.66303 -6.16554,2.2789 -7.61379,4.48214 l -26.90398,-34.73544 c -1.81649,-2.34524 -5.39306,-3.85549 -7.99248,-3.37492 l -38.21275,7.06474 c 3.55331,2.09266 6.75081,4.74027 9.11841,7.79705 6.64968,8.58535 4.32355,16.981 -5.19228,18.74028 -9.51584,1.75927 -22.6357,-3.78074 -29.28539,-12.3661 -2.3676,-3.05676 -3.55875,-6.07531 -3.73128,-8.79302 l -38.21275,7.06475 c -2.5994,0.48057 -3.2335,2.76931 -1.41704,5.11453 l 26.22636,33.86058 c -3.29012,-0.70243 -6.54524,-0.86429 -9.45023,-0.32723 -9.51583,1.75928 -11.84196,10.15494 -5.19226,18.74029 6.64972,8.58536 19.76955,14.12537 29.28541,12.36609 2.90497,-0.53708 5.12526,-1.71124 6.63933,-3.30185 l 26.22639,33.86058 c 1.81649,2.34523 5.39304,3.85549 7.99248,3.37491 l 38.21275,-7.06472 c -3.5533,-2.09267 -6.75081,-4.74028 -9.11839,-7.79706 -6.64973,-8.58536 -4.3236,-16.98101 5.19226,-18.74027 9.51583,-1.75929 22.63567,3.78071 29.28539,12.36607 2.3676,3.05678 3.55875,6.07532 3.73128,8.79302 l 38.21275,-7.06472 c 2.5994,-0.48058 3.23351,-2.76932 1.41704,-5.11454 l -26.90398,-34.73545 c 4.07089,1.18285 8.19352,1.55971 11.77988,0.89666 9.51583,-1.75928 11.84196,-10.15493 5.19227,-18.74029 z"
           id="path9484"
           inkscape:connector-curvature="0" />
        <path
           style="fill:#cc0000;fill-opacity:1;fill-rule:evenodd;stroke:none"
           d="m 936.50326,-313.73303 c -6.64969,-8.58535 -19.76956,-14.12536 -29.2854,-12.36608 -3.58638,0.66303 -6.16554,2.2789 -7.61379,4.48214 l -26.90398,-34.73544 c -1.81649,-2.34524 -5.39306,-3.85549 -7.99248,-3.37492 l -38.21275,7.06474 c 3.55331,2.09266 6.75081,4.74027 9.11841,7.79705 6.64968,8.58535 4.32355,16.981 -5.19228,18.74028 -9.51584,1.75927 -22.6357,-3.78074 -29.28539,-12.3661 -2.3676,-3.05676 -3.55875,-6.07531 -3.73128,-8.79302 l -38.21275,7.06475 c -2.5994,0.48057 -3.2335,2.76931 -1.41704,5.11453 l 26.22636,33.86058 c -3.29012,-0.70243 -6.54524,-0.86429 -9.45023,-0.32723 -9.51583,1.75928 -11.84196,10.15494 -5.19226,18.74029 6.64972,8.58536 19.76955,14.12537 29.28541,12.36609 2.90497,-0.53708 5.12526,-1.71124 6.63933,-3.30185 l 26.22639,33.86058 c 1.81649,2.34523 5.39304,3.85549 7.99248,3.37491 l 38.21275,-7.06472 c -3.5533,-2.09267 -6.75081,-4.74028 -9.11839,-7.79706 -6.64973,-8.58536 -4.3236,-16.98101 5.19226,-18.74027 9.51583,-1.75929 22.63567,3.78071 29.28539,12.36607 2.3676,3.05678 3.55875,6.07532 3.73128,8.79302 l 38.21275,-7.06472 c 2.5994,-0.48058 3.23351,-2.76932 1.41704,-5.11454 l -26.90398,-34.73545 c 4.07089,1.18285 8.19352,1.55971 11.77988,0.89666 9.51583,-1.75928 11.84196,-10.15493 5.19227,-18.74029 z"
           id="path9486"
           inkscape:connector-curvature="0" />
        <path
           style="fill:url(#linearGradient9508);fill-opacity:1;fill-rule:evenodd;stroke:none"
           d="m 936.50326,-313.73303 c -6.64969,-8.58535 -19.76956,-14.12536 -29.2854,-12.36608 -3.58638,0.66303 -6.16554,2.2789 -7.61379,4.48214 l -26.90398,-34.73544 c -1.81649,-2.34524 -5.39306,-3.85549 -7.99248,-3.37492 l -38.21275,7.06474 c 3.55331,2.09266 6.75081,4.74027 9.11841,7.79705 6.64968,8.58535 4.32355,16.981 -5.19228,18.74028 -9.51584,1.75927 -22.6357,-3.78074 -29.28539,-12.3661 -2.3676,-3.05676 -3.55875,-6.07531 -3.73128,-8.79302 l -38.21275,7.06475 c -2.5994,0.48057 -3.2335,2.76931 -1.41704,5.11453 l 26.22636,33.86058 c -3.29012,-0.70243 -6.54524,-0.86429 -9.45023,-0.32723 -9.51583,1.75928 -11.84196,10.15494 -5.19226,18.74029 6.64972,8.58536 19.76955,14.12537 29.28541,12.36609 2.90497,-0.53708 5.12526,-1.71124 6.63933,-3.30185 l 26.22639,33.86058 c 1.81649,2.34523 5.39304,3.85549 7.99248,3.37491 l 38.21275,-7.06472 c -3.5533,-2.09267 -6.75081,-4.74028 -9.11839,-7.79706 -6.64973,-8.58536 -4.3236,-16.98101 5.19226,-18.74027 9.51583,-1.75929 22.63567,3.78071 29.28539,12.36607 2.3676,3.05678 3.55875,6.07532 3.73128,8.79302 l 38.21275,-7.06472 c 2.5994,-0.48058 3.23351,-2.76932 1.41704,-5.11454 l -26.90398,-34.73545 c 4.07089,1.18285 8.19352,1.55971 11.77988,0.89666 9.51583,-1.75928 11.84196,-10.15493 5.19227,-18.74029 z"
           id="path9488"
           inkscape:connector-curvature="0" />
      </g>
      <g
         transform="matrix(0.9853309,0.06992654,-0.2097796,1,-34.235487,-58.023646)"
         id="g9490">
        <path
           style="fill:#666666;fill-opacity:1;fill-rule:evenodd;stroke:none;filter:url(#filter6240)"
           d="m 885.1514,-244.15527 c 9.51582,-1.75929 22.63569,3.78073 29.28539,12.36609 2.50617,3.2357 3.74343,6.46306 3.7953,9.29977 l 38.50003,-7.11784 c 2.5995,-0.4806 6.17602,1.02966 7.99251,3.3749 l 26.70327,34.47624 c -3.84707,-1.03227 -7.68836,-1.35679 -11.07637,-0.73041 -9.51582,1.75928 -11.84197,10.15492 -5.19227,18.74027 6.6497,8.58536 19.76942,14.12537 29.28544,12.36611 3.3879,-0.62639 5.8273,-2.11201 7.3116,-4.12998 l 26.7034,34.47624 c 1.8165,2.34523 1.1822,4.63396 -1.417,5.11455 l -37.5305,6.93855 c 2.9493,1.93228 5.6028,4.26537 7.633,6.88633 6.6495,8.58534 4.3234,16.980995 -5.1923,18.740283 -9.51582,1.759278 -22.63574,-3.780738 -29.28542,-12.366093 -2.03003,-2.62093 -3.20272,-5.22782 -3.61054,-7.62998 l -37.53038,6.93857 c -2.5994,0.48057 -6.17601,-1.02967 -7.99248,-3.37491 l -26.70321,-34.47622 c 3.84712,1.03224 7.68826,1.35677 11.07632,0.7304 9.51583,-1.75928 11.84196,-10.15493 5.19228,-18.74029 -6.64972,-8.58536 -19.76957,-14.12537 -29.28539,-12.36609 -3.38808,0.62638 -5.82718,2.11201 -7.31178,4.12998 l -26.70323,-34.47624 c -1.81648,-2.34524 -1.18235,-4.63397 1.41708,-5.11453 l 38.50005,-7.11785 c -3.80496,-2.14284 -7.2509,-4.96187 -9.75708,-8.19758 -6.6497,-8.58535 -4.32355,-16.98099 5.19228,-18.74027 z"
           id="path9492"
           inkscape:connector-curvature="0" />
        <path
           style="fill:#8ae234;fill-opacity:1;fill-rule:evenodd;stroke:none"
           d="m 891.1514,-250.15527 c 9.51582,-1.75929 22.63569,3.78073 29.28539,12.36609 2.50617,3.2357 3.74343,6.46306 3.7953,9.29977 l 38.50001,-7.11784 c 2.5995,-0.4806 6.176,1.02966 7.9925,3.3749 l 26.7033,34.47624 c -3.8471,-1.03227 -7.6884,-1.35679 -11.0764,-0.73041 -9.5158,1.75928 -11.8419,10.15492 -5.1922,18.74027 6.6497,8.58536 19.7694,14.12537 29.2854,12.36611 3.3879,-0.62639 5.8273,-2.11201 7.3116,-4.12998 l 26.7034,34.47624 c 1.8165,2.34523 1.1822,4.63396 -1.417,5.11455 l -37.5305,6.93855 c 2.9493,1.93228 5.6028,4.26537 7.633,6.88633 6.6495,8.58534 4.3234,16.98099 -5.1923,18.740283 -9.5158,1.759278 -22.6357,-3.780743 -29.2854,-12.366093 -2.0301,-2.62093 -3.2027,-5.22782 -3.6106,-7.62998 l -37.53034,6.93857 c -2.5994,0.48057 -6.17601,-1.02967 -7.99248,-3.37491 l -26.70321,-34.47622 c 3.84712,1.03224 7.68826,1.35677 11.07632,0.7304 9.51583,-1.75928 11.84196,-10.15493 5.19228,-18.74029 -6.64972,-8.58536 -19.76957,-14.12537 -29.28539,-12.36609 -3.38808,0.62638 -5.82718,2.11201 -7.31178,4.12998 l -26.70323,-34.47624 c -1.81648,-2.34524 -1.18235,-4.63397 1.41708,-5.11453 l 38.50005,-7.11785 c -3.80496,-2.14284 -7.2509,-4.96187 -9.75708,-8.19758 -6.6497,-8.58535 -4.32355,-16.98099 5.19228,-18.74027 z"
           id="path9494"
           inkscape:connector-curvature="0" />
        <path
           style="fill:url(#linearGradient9510);fill-opacity:1;fill-rule:evenodd;stroke:none"
           d="m 891.1514,-250.15527 c 9.51582,-1.75929 22.63569,3.78073 29.28539,12.36609 2.50617,3.2357 3.74343,6.46306 3.7953,9.29977 l 38.50001,-7.11784 c 2.5995,-0.4806 6.176,1.02966 7.9925,3.3749 l 26.7033,34.47624 c -3.8471,-1.03227 -7.6884,-1.35679 -11.0764,-0.73041 -9.5158,1.75928 -11.8419,10.15492 -5.1922,18.74027 6.6497,8.58536 19.7694,14.12537 29.2854,12.36611 3.3879,-0.62639 5.8273,-2.11201 7.3116,-4.12998 l 26.7034,34.47624 c 1.8165,2.34523 1.1822,4.63396 -1.417,5.11455 l -37.5305,6.93855 c 2.9493,1.93228 5.6028,4.26537 7.633,6.88633 6.6495,8.58534 4.3234,16.98099 -5.1923,18.740283 -9.5158,1.759278 -22.6357,-3.780743 -29.2854,-12.366093 -2.0301,-2.62093 -3.2027,-5.22782 -3.6106,-7.62998 l -37.53034,6.93857 c -2.5994,0.48057 -6.17601,-1.02967 -7.99248,-3.37491 l -26.70321,-34.47622 c 3.84712,1.03224 7.68826,1.35677 11.07632,0.7304 9.51583,-1.75928 11.84196,-10.15493 5.19228,-18.74029 -6.64972,-8.58536 -19.76957,-14.12537 -29.28539,-12.36609 -3.38808,0.62638 -5.82718,2.11201 -7.31178,4.12998 l -26.70323,-34.47624 c -1.81648,-2.34524 -1.18235,-4.63397 1.41708,-5.11453 l 38.50005,-7.11785 c -3.80496,-2.14284 -7.2509,-4.96187 -9.75708,-8.19758 -6.6497,-8.58535 -4.32355,-16.98099 5.19228,-18.74027 z"
           id="path9496"
           inkscape:connector-curvature="0" />
      </g>
      <g
         transform="matrix(0.9853309,0.06992654,-0.2097796,1,-34.235487,-58.023646)"
         id="g9498">
        <path
           style="fill:#666666;fill-opacity:1;fill-rule:evenodd;stroke:none;filter:url(#filter6240)"
           d="m 723.05671,-127.1378 c -6.6497,-8.58536 -4.32356,-16.98099 5.19228,-18.74027 3.58638,-0.66305 7.70897,-0.2862 11.77988,0.89666 l -26.90399,-34.73545 c -1.81648,-2.34523 -1.18237,-4.63395 1.41705,-5.11454 l 38.21275,-7.06472 c 0.17253,2.7177 1.36368,5.73623 3.73126,8.79302 6.6497,8.58535 19.76957,14.12536 29.28539,12.36607 9.51586,-1.75927 11.842,-10.15491 5.19228,-18.74027 -2.3676,-3.05678 -5.56509,-5.70438 -9.1184,-7.79706 l 38.21274,-7.06472 c 2.59945,-0.48058 6.17602,1.0297 7.99248,3.37491 l 26.22639,33.86058 c 1.51407,-1.59062 3.73437,-2.76478 6.63934,-3.30185 9.51585,-1.75928 22.63569,3.78072 29.28542,12.36608 6.64968,8.58536 4.32355,16.98102 -5.19228,18.74029 -2.90499,0.53707 -6.16011,0.3752 -9.45023,-0.32723 l 26.22636,33.86058 c 1.81647,2.34524 1.18238,4.63396 -1.41704,5.11454 l -38.21275,7.064737 c -0.17253,-2.717707 -1.36368,-5.736247 -3.73127,-8.793017 -6.64969,-8.58535 -19.76956,-14.12538 -29.28539,-12.36609 -9.51584,1.75928 -11.84197,10.15492 -5.19227,18.740284 2.36758,3.056771 5.56509,5.704381 9.1184,7.79705 l -38.21274,7.064732 c -2.59941,0.480576 -6.17602,-1.029691 -7.99248,-3.374912 l -26.90398,-34.735444 c -1.44827,2.20324 -4.02743,3.81909 -7.61381,4.48213 -9.51584,1.75929 -22.63567,-3.78072 -29.28539,-12.36609 z"
           id="path9500"
           inkscape:connector-curvature="0" />
        <path
           style="fill:#204a87;fill-opacity:1;fill-rule:evenodd;stroke:none"
           d="m 729.05671,-133.1378 c -6.6497,-8.58536 -4.32356,-16.98099 5.19228,-18.74027 3.58638,-0.66305 7.70897,-0.2862 11.77988,0.89666 l -26.90399,-34.73545 c -1.81648,-2.34523 -1.18237,-4.63395 1.41705,-5.11454 l 38.21275,-7.06472 c 0.17253,2.7177 1.36368,5.73623 3.73126,8.79302 6.6497,8.58535 19.76957,14.12536 29.28539,12.36607 9.51586,-1.75927 11.842,-10.15491 5.19228,-18.74027 -2.3676,-3.05678 -5.56509,-5.70438 -9.1184,-7.79706 l 38.21274,-7.06472 c 2.59945,-0.48058 6.17602,1.0297 7.99248,3.37491 l 26.22639,33.86058 c 1.51407,-1.59062 3.73437,-2.76478 6.63934,-3.30185 9.51585,-1.75928 22.63569,3.78072 29.28542,12.36608 6.64968,8.58536 4.32355,16.98102 -5.19228,18.74029 -2.90499,0.53707 -6.16011,0.3752 -9.45023,-0.32723 l 26.22636,33.86058 c 1.81647,2.34524 1.18238,4.63396 -1.41704,5.11454 l -38.21275,7.064737 c -0.17253,-2.717707 -1.36368,-5.736247 -3.73127,-8.793017 -6.64969,-8.58535 -19.76956,-14.12538 -29.28539,-12.36609 -9.51584,1.75928 -11.84197,10.15492 -5.19227,18.74028 2.36758,3.056775 5.56509,5.704385 9.1184,7.797054 l -38.21274,7.064732 c -2.59941,0.480576 -6.17602,-1.029691 -7.99248,-3.374912 l -26.90398,-34.735444 c -1.44827,2.20324 -4.02743,3.81909 -7.61381,4.48213 -9.51584,1.75929 -22.63567,-3.78072 -29.28539,-12.36609 z"
           id="path9502"
           inkscape:connector-curvature="0" />
        <path
           style="fill:url(#linearGradient9512);fill-opacity:1;fill-rule:evenodd;stroke:none"
           d="m 729.05671,-133.1378 c -6.6497,-8.58536 -4.32356,-16.98099 5.19228,-18.74027 3.58638,-0.66305 7.70897,-0.2862 11.77988,0.89666 l -26.90399,-34.73545 c -1.81648,-2.34523 -1.18237,-4.63395 1.41705,-5.11454 l 38.21275,-7.06472 c 0.17253,2.7177 1.36368,5.73623 3.73126,8.79302 6.6497,8.58535 19.76957,14.12536 29.28539,12.36607 9.51586,-1.75927 11.842,-10.15491 5.19228,-18.74027 -2.3676,-3.05678 -5.56509,-5.70438 -9.1184,-7.79706 l 38.21274,-7.06472 c 2.59945,-0.48058 6.17602,1.0297 7.99248,3.37491 l 26.22639,33.86058 c 1.51407,-1.59062 3.73437,-2.76478 6.63934,-3.30185 9.51585,-1.75928 22.63569,3.78072 29.28542,12.36608 6.64968,8.58536 4.32355,16.98102 -5.19228,18.74029 -2.90499,0.53707 -6.16011,0.3752 -9.45023,-0.32723 l 26.22636,33.86058 c 1.81647,2.34524 1.18238,4.63396 -1.41704,5.11454 l -38.21275,7.064737 c -0.17253,-2.717707 -1.36368,-5.736247 -3.73127,-8.793017 -6.64969,-8.58535 -19.76956,-14.12538 -29.28539,-12.36609 -9.51584,1.75928 -11.84197,10.15492 -5.19227,18.74028 2.36758,3.056775 5.56509,5.704385 9.1184,7.797054 l -38.21274,7.064732 c -2.59941,0.480576 -6.17602,-1.029691 -7.99248,-3.374912 l -26.90398,-34.735444 c -1.44827,2.20324 -4.02743,3.81909 -7.61381,4.48213 -9.51584,1.75929 -22.63567,-3.78072 -29.28539,-12.36609 z"
           id="path9504"
           inkscape:connector-curvature="0" />
      </g>
    </g>
  </g>
</svg>
